<svg width="116" height="9" viewBox="0 0 116 9" fill="none" xmlns="http://www.w3.org/2000/svg">
<path d="M5.43652 5.86768C5.43652 6.56592 5.18408 7.11377 4.6792 7.51123C4.17432 7.90869 3.47786 8.10742 2.58984 8.10742C1.70182 8.10742 0.974935 7.96956 0.40918 7.69385V6.47998C0.767253 6.64827 1.14681 6.78076 1.54785 6.87744C1.95247 6.97412 2.32845 7.02246 2.67578 7.02246C3.18424 7.02246 3.55843 6.92578 3.79834 6.73242C4.04183 6.53906 4.16357 6.27946 4.16357 5.95361C4.16357 5.65999 4.05257 5.41113 3.83057 5.20703C3.60856 5.00293 3.15023 4.76123 2.45557 4.48193C1.73942 4.19189 1.23454 3.86068 0.940918 3.48828C0.647298 3.11589 0.500488 2.66829 0.500488 2.14551C0.500488 1.49023 0.733236 0.974609 1.19873 0.598633C1.66423 0.222656 2.28906 0.034668 3.07324 0.034668C3.8252 0.034668 4.57357 0.199382 5.31836 0.528809L4.91016 1.57617C4.21191 1.28255 3.58887 1.13574 3.04102 1.13574C2.62565 1.13574 2.31055 1.22705 2.0957 1.40967C1.88086 1.5887 1.77344 1.82682 1.77344 2.12402C1.77344 2.32812 1.81641 2.50358 1.90234 2.65039C1.98828 2.79362 2.12972 2.92969 2.32666 3.05859C2.5236 3.1875 2.87809 3.35758 3.39014 3.56885C3.96663 3.80876 4.38916 4.03255 4.65771 4.24023C4.92627 4.44792 5.12321 4.68245 5.24854 4.94385C5.37386 5.20524 5.43652 5.51318 5.43652 5.86768ZM13.9974 1.13574C13.2597 1.13574 12.6797 1.39714 12.2571 1.91992C11.8346 2.44271 11.6233 3.16423 11.6233 4.08447C11.6233 5.04769 11.8257 5.77637 12.2303 6.27051C12.6385 6.76465 13.2275 7.01172 13.9974 7.01172C14.3304 7.01172 14.6526 6.97949 14.9642 6.91504C15.2757 6.84701 15.5997 6.76107 15.9363 6.65723V7.7583C15.3204 7.99105 14.6222 8.10742 13.8416 8.10742C12.6922 8.10742 11.8095 7.76009 11.1937 7.06543C10.5778 6.36719 10.2698 5.36995 10.2698 4.07373C10.2698 3.25732 10.4184 2.54297 10.7156 1.93066C11.0164 1.31836 11.4497 0.849284 12.0154 0.523438C12.5812 0.197591 13.2454 0.034668 14.0081 0.034668C14.8102 0.034668 15.5514 0.202962 16.2317 0.539551L15.7698 1.6084C15.5049 1.48307 15.2238 1.37386 14.9266 1.28076C14.6329 1.18408 14.3232 1.13574 13.9974 1.13574ZM22.6119 3.7998H23.5035C24.1015 3.7998 24.5348 3.6888 24.8033 3.4668C25.0719 3.24479 25.2062 2.91536 25.2062 2.47852C25.2062 2.03451 25.0611 1.71582 24.7711 1.52246C24.4811 1.3291 24.0442 1.23242 23.4605 1.23242H22.6119V3.7998ZM22.6119 4.86328V8H21.3282V0.147461H23.5465C24.5598 0.147461 25.31 0.33724 25.797 0.716797C26.284 1.09635 26.5274 1.66927 26.5274 2.43555C26.5274 3.41309 26.019 4.10954 25.0021 4.5249L27.2203 8H25.7594L23.8795 4.86328H22.6119ZM39.036 4.06299C39.036 5.34131 38.7156 6.33496 38.0746 7.04395C37.4372 7.75293 36.5331 8.10742 35.3622 8.10742C34.177 8.10742 33.2657 7.75651 32.6283 7.05469C31.9945 6.34928 31.6776 5.34847 31.6776 4.05225C31.6776 2.75602 31.9963 1.76058 32.6337 1.06592C33.2746 0.371257 34.1877 0.0239258 35.3729 0.0239258C36.5403 0.0239258 37.4426 0.376628 38.08 1.08203C38.7174 1.78743 39.036 2.78109 39.036 4.06299ZM33.0419 4.06299C33.0419 5.02979 33.237 5.76383 33.6273 6.26514C34.0176 6.76286 34.5959 7.01172 35.3622 7.01172C36.1249 7.01172 36.6996 6.76465 37.0863 6.27051C37.4766 5.77637 37.6718 5.04053 37.6718 4.06299C37.6718 3.09977 37.4784 2.3693 37.0917 1.87158C36.7086 1.37386 36.1356 1.125 35.3729 1.125C34.6031 1.125 34.0212 1.37386 33.6273 1.87158C33.237 2.3693 33.0419 3.09977 33.0419 4.06299ZM44.4226 8V0.147461H45.7062V6.89893H49.031V8H44.4226ZM54.0845 8V0.147461H55.3682V6.89893H58.6929V8H54.0845ZM76.69 3.99854C76.69 5.29476 76.3302 6.28662 75.6105 6.97412C74.8907 7.65804 73.8541 8 72.5006 8H70.3038V0.147461H72.7315C73.9812 0.147461 74.9534 0.484049 75.648 1.15723C76.3427 1.8304 76.69 2.77751 76.69 3.99854ZM75.3365 4.0415C75.3365 2.16162 74.4575 1.22168 72.6993 1.22168H71.5875V6.92041H72.5006C74.3912 6.92041 75.3365 5.96077 75.3365 4.0415ZM89.0536 4.06299C89.0536 5.34131 88.7331 6.33496 88.0922 7.04395C87.4548 7.75293 86.5507 8.10742 85.3798 8.10742C84.1946 8.10742 83.2833 7.75651 82.6459 7.05469C82.0121 6.34928 81.6952 5.34847 81.6952 4.05225C81.6952 2.75602 82.0139 1.76058 82.6513 1.06592C83.2922 0.371257 84.2053 0.0239258 85.3905 0.0239258C86.5578 0.0239258 87.4602 0.376628 88.0976 1.08203C88.7349 1.78743 89.0536 2.78109 89.0536 4.06299ZM83.0595 4.06299C83.0595 5.02979 83.2546 5.76383 83.6449 6.26514C84.0352 6.76286 84.6135 7.01172 85.3798 7.01172C86.1425 7.01172 86.7172 6.76465 87.1039 6.27051C87.4942 5.77637 87.6894 5.04053 87.6894 4.06299C87.6894 3.09977 87.496 2.3693 87.1093 1.87158C86.7261 1.37386 86.1532 1.125 85.3905 1.125C84.6207 1.125 84.0388 1.37386 83.6449 1.87158C83.2546 2.3693 83.0595 3.09977 83.0595 4.06299ZM101.686 8H100.289L98.9572 3.31641C98.8999 3.1123 98.8283 2.81868 98.7424 2.43555C98.6564 2.04883 98.6045 1.78027 98.5866 1.62988C98.5508 1.85905 98.4917 2.15625 98.4094 2.52148C98.3306 2.88672 98.2644 3.15885 98.2106 3.33789L96.9108 8H95.5144L94.4992 4.06836L93.468 0.147461H94.7785L95.9011 4.72363C96.0765 5.45768 96.2019 6.10579 96.2771 6.66797C96.3164 6.36361 96.3755 6.02344 96.4543 5.64746C96.5331 5.27148 96.6047 4.96712 96.6691 4.73438L97.9475 0.147461H99.2204L100.531 4.75586C100.656 5.18197 100.789 5.81934 100.928 6.66797C100.982 6.15592 101.111 5.50423 101.315 4.71289L102.432 0.147461H103.732L101.686 8ZM115.091 8H113.518L109.656 1.74268H109.613L109.64 2.0918C109.69 2.75781 109.715 3.36654 109.715 3.91797V8H108.549V0.147461H110.107L113.958 6.37256H113.99C113.983 6.2902 113.969 5.99121 113.947 5.47559C113.926 4.95638 113.915 4.55176 113.915 4.26172V0.147461H115.091V8Z" fill="white"/>
</svg>
